<?xml version="1.0" encoding="utf-8"?>
<!-- Generator: Adobe Illustrator 24.1.2, SVG Export Plug-In . SVG Version: 6.00 Build 0)  -->
<svg version="1.1" xmlns="http://www.w3.org/2000/svg" xmlns:xlink="http://www.w3.org/1999/xlink" x="0px" y="0px"
	 viewBox="0 0 32 32" style="enable-background:new 0 0 32 32;" xml:space="preserve">
<style type="text/css">
	.st0{fill:#F47C77;}
</style>
<g id="Слой_2">
	<g>
		<path class="st0" d="M9.47,6c2.04,0,4.05,0.94,5.83,2.71L16,9.41l0.71-0.71c1.67-1.67,3.59-2.56,5.55-2.56
			c2.73,0,5.29,1.75,6.37,4.34c1.12,2.71,0.38,5.65-2.05,8.08l-0.4,0.4c-0.48-0.32-1.01-0.56-1.59-0.72c0-0.03-0.01-0.07-0.01-0.1
			c-0.04-0.38-0.2-0.72-0.45-0.97c-0.08-0.64-0.53-1.16-1.13-1.3c-0.11-0.03-0.22-0.04-0.34-0.04c-0.14,0-0.28,0.02-0.42,0.06
			l-0.06-0.01l-0.07-0.01l-0.07,0c-0.26,0-0.5,0.06-0.72,0.19c-0.11,0.06-0.22,0.12-0.32,0.2c-0.11,0.08-0.26,0.19-0.4,0.35
			c-0.05,0.06-0.1,0.12-0.15,0.18c-0.47,0.07-0.88,0.34-1.09,0.75c-0.06,0.11-0.1,0.22-0.14,0.33c-0.12,0.2-0.2,0.43-0.22,0.68
			c-0.02,0.24-0.01,0.48,0.04,0.76c0,0.02,0,0.04,0.01,0.06c-0.16,0.14-0.31,0.29-0.45,0.45c-0.22,0.06-0.4,0.16-0.53,0.24
			l-0.07,0.03c-0.18,0.08-0.36,0.19-0.53,0.31c-0.08,0-0.16,0.01-0.24,0.02c-0.15,0.02-0.61,0.07-0.97,0.46
			c-0.29,0.32-0.44,0.72-0.41,1.11c-0.11,0.22-0.17,0.47-0.16,0.71c0,0.02,0,0.04,0,0.06c0,0.05-0.01,0.1,0,0.16
			c0.03,0.76,0.62,1.38,1.35,1.45c0.05,1.04,0.34,2.03,0.84,2.89L16,29.14L5.43,18.57c-2.55-2.55-3.35-5.59-2.21-8.35
			C4.27,7.69,6.78,6,9.47,6L9.47,6 M9.47,5c-6.35,0-11.1,7.93-4.75,14.28L16,30.56l3.18-3.18c-0.91-1.1-1.28-2.62-1.11-4.05
			c-0.02,0.01-0.04,0.02-0.07,0.02c-0.12,0.02-0.23,0.03-0.35,0.04c-0.02,0-0.05,0-0.07,0c-0.13,0-0.27-0.01-0.4-0.01
			c-0.28,0-0.49-0.23-0.5-0.5c0-0.04,0.01-0.08,0.02-0.11c-0.01-0.04-0.02-0.07-0.02-0.11c-0.01-0.12,0.06-0.27,0.15-0.35
			c0.03-0.03,0.06-0.04,0.09-0.06c0,0,0-0.01,0-0.01c-0.05-0.1-0.07-0.21-0.08-0.32c-0.01-0.13,0.06-0.26,0.15-0.35
			c0.09-0.1,0.22-0.13,0.35-0.15c0.05-0.01,0.1-0.01,0.16-0.01c0.11,0,0.22,0.01,0.33,0.03c0,0,0-0.01,0-0.01
			c0.03-0.03,0.05-0.07,0.08-0.1c0.16-0.13,0.31-0.23,0.49-0.31c0.04-0.02,0.09-0.04,0.13-0.06c0.13-0.08,0.26-0.15,0.41-0.18
			c0.02-0.01,0.04-0.01,0.07-0.01c0.04,0,0.07,0.01,0.11,0.01c0.29-0.38,0.63-0.73,1.05-1c-0.04-0.05-0.08-0.11-0.09-0.17
			c-0.01-0.04-0.01-0.09-0.01-0.13c0,0,0,0,0,0c0-0.01,0-0.03,0-0.04c-0.01-0.08-0.02-0.16-0.02-0.25C20,19,19.98,18.82,19.99,18.64
			c0.01-0.13,0.06-0.25,0.14-0.33c0.03-0.1,0.06-0.2,0.11-0.29c0.08-0.16,0.26-0.23,0.43-0.23c0.06,0,0.13,0.01,0.19,0.03
			c0.04-0.03,0.09-0.06,0.14-0.07c0.05-0.06,0.12-0.11,0.2-0.14c0-0.05,0.01-0.1,0.03-0.14c0.02-0.06,0.05-0.12,0.1-0.16
			c0.07-0.09,0.17-0.16,0.26-0.23c0.06-0.04,0.13-0.08,0.2-0.12c0.08-0.05,0.16-0.07,0.25-0.07c0.04,0.01,0.09,0.01,0.13,0.02
			c0.05,0.01,0.08,0.05,0.12,0.07c0.09-0.09,0.23-0.13,0.36-0.13c0.04,0,0.08,0,0.12,0.01c0.22,0.05,0.35,0.27,0.37,0.48
			c0.01,0.08,0,0.16,0,0.24c0.08,0.06,0.13,0.13,0.17,0.23c0.16,0.08,0.26,0.25,0.27,0.44c0.02,0.23,0.02,0.46,0.02,0.68
			c0,0.05-0.03,0.09-0.04,0.14c1.12,0.14,2.02,0.59,2.69,1.25l1.04-1.04c6.19-6.19,1.28-14.13-5.02-14.13
			C20.21,5.15,18.01,5.99,16,8C13.88,5.88,11.59,5,9.47,5L9.47,5z"/>
	</g>
</g>
<g id="Слой_4">
	<path class="st0" d="M22,15c-3.87,0-7,3.13-7,7c0,3.87,3.13,7,7,7s7-3.13,7-7C29,18.13,25.87,15,22,15z M22.98,22.98
		C22.89,25.27,22.49,27,22,27s-0.89-1.73-0.98-4.02C18.73,22.89,17,22.49,17,22c0-0.49,1.73-0.89,4.02-0.98
		C21.11,18.73,21.51,17,22,17s0.89,1.73,0.98,4.02C25.27,21.11,27,21.51,27,22C27,22.49,25.27,22.89,22.98,22.98z"/>
</g>
</svg>
